# Blender v2.79 (sub 0) OBJ File: ''
# www.blender.org
mtllib Pyramid12.mtl
o Cylinder
v 0.000000 0.000000 1.000000
v -0.500000 0.000000 0.866025
v -0.866025 0.000000 0.500000
v -1.000000 0.000000 -0.000000
v -0.866025 0.000000 -0.500000
v -0.500000 0.000000 -0.866025
v -0.000000 0.000000 -1.000000
v 0.500000 0.000000 -0.866026
v 0.866025 0.000000 -0.500000
v 1.000000 0.000000 -0.000000
v 0.000000 2.000000 -0.000000
v 0.866026 0.000000 0.499999
v 0.500001 0.000000 0.866025
vn -0.2331 0.4349 0.8698
vn -0.6367 0.4349 0.6367
vn -0.8698 0.4349 0.2331
vn -0.8698 0.4349 -0.2331
vn -0.6367 0.4349 -0.6367
vn -0.2331 0.4349 -0.8698
vn 0.2331 0.4349 -0.8698
vn 0.6367 0.4349 -0.6367
vn 0.8698 0.4349 -0.2331
vn 0.8698 0.4349 0.2331
vn 0.6367 0.4349 0.6367
vn 0.2331 0.4349 0.8698
vn 0.0000 -1.0000 0.0000
usemtl None
s off
f 1//1 11//1 2//1
f 2//2 11//2 3//2
f 3//3 11//3 4//3
f 4//4 11//4 5//4
f 5//5 11//5 6//5
f 6//6 11//6 7//6
f 7//7 11//7 8//7
f 8//8 11//8 9//8
f 9//9 11//9 10//9
f 10//10 11//10 12//10
f 12//11 11//11 13//11
f 13//12 11//12 1//12
f 1//13 2//13 3//13 4//13 5//13 6//13 7//13 8//13 9//13 10//13 12//13 13//13
